<svg xmlns="http://www.w3.org/2000/svg" width="101.009" height="71.568" viewBox="444.284 1659.875 101.009 71.568"><g data-name="Lag 1"><g data-name="Group 34"><path d="M457.134 1688.472v12.618h2.483v-10.515h71.204v10.515H533.304v-12.601h-76.17Z" fill="#bd2328" fill-rule="evenodd" data-name="Path 10"/><path d="M444.284 1659.875v28.813c0 6.855 5.547 12.402 12.402 12.402h76.204c.133 0 .282 0 .414-.016 6.64-.216 11.989-5.664 11.989-12.386v-28.813h-101.01Zm98.525 28.813c0 5.332-4.222 9.687-9.505 9.902-.132.016-.281.016-.414.016h-76.204c-5.464 0-9.918-4.454-9.918-9.918v-26.329h96.041v26.329Z" fill="#bd2328" fill-rule="evenodd" data-name="Path 11"/><path d="M480.316 1678.322h29.806v2.484h-29.806v-2.484z" fill="#bd2328" fill-rule="evenodd" data-name="Rectangle 31"/><path d="M529.993 1678.322h3.311v2.484h-3.311v-2.484z" fill="#bd2328" fill-rule="evenodd" data-name="Rectangle 32"/><path d="M523.369 1678.322h3.312v2.484h-3.312v-2.484z" fill="#bd2328" fill-rule="evenodd" data-name="Rectangle 33"/><path d="M516.745 1678.322h3.312v2.484h-3.312v-2.484z" fill="#bd2328" fill-rule="evenodd" data-name="Rectangle 34"/></g><g data-name="Group 35"><path d="M459.667 1731.111h-3.792v-2.483h3.792c6.243 0 6.557-2.733 6.557-10.598v-6.375h2.484v6.375c0 7.02 0 13.081-9.04 13.081Z" fill="#bd2328" fill-rule="evenodd" data-name="Path 12"/><path d="M533.702 1731.111h-3.792c-9.041 0-9.041-6.06-9.041-13.081v-6.375h2.483v6.375c0 7.882.315 10.598 6.558 10.598h3.792v2.483Z" fill="#bd2328" fill-rule="evenodd" data-name="Path 13"/><path d="M493.878 1711.986h2.285v19.457h-2.285v-19.457z" fill="#bd2328" fill-rule="evenodd" data-name="Rectangle 35"/><path d="M506.578 1711.986h2.285v19.457h-2.285v-19.457z" fill="#bd2328" fill-rule="evenodd" data-name="Rectangle 36"/><path d="M481.177 1711.986h2.285v19.457h-2.285v-19.457z" fill="#bd2328" fill-rule="evenodd" data-name="Rectangle 37"/></g></g></svg>