<svg xmlns="http://www.w3.org/2000/svg" width="81.476" height="78.712"><path d="M71.82 0v14.185h-2.765V0H0v78.712h69.055v-12.81h2.764v12.81h9.657V0H71.82ZM26.045 76.708h-8.682V59.892c0-.775.588-1.403 1.336-1.483.053-.013.12-.013.173-.013h5.677s.107 0 .16.013c.748.08 1.336.708 1.336 1.483v16.816Zm-5.343-20.316v-7.346h2.004v7.346h-2.004Zm46.348 20.316H28.05V59.892a3.508 3.508 0 0 0-3.339-3.5v-9.35H18.7v9.35a3.508 3.508 0 0 0-3.34 3.5v16.816H2.004V39.67H67.05v37.038ZM50.796 19.381s.107 0 .16.013c.748.08 1.336.708 1.336 1.483v16.79H43.61v-16.79c0-.775.588-1.403 1.336-1.483.053-.013.12-.013.173-.013h5.677Zm-3.847-2.004v-7.346h2.004v7.346h-2.004Zm20.102 20.29H54.295v-16.79c0-1.87-1.482-3.406-3.339-3.5v-9.35h-6.01v9.35c-1.857.094-3.34 1.63-3.34 3.5v16.79H2.004V2.003H67.05v35.662Zm4.768 26.232h-2.764v-4.902h2.764v4.902Zm0-6.905h-2.764v-33.9h2.764v33.9Zm0-35.904h-2.764v-4.902h2.764v4.902Zm7.654 55.618h-5.65V2.004h5.65v74.704Z" fill="#bd2328" fill-rule="evenodd" data-name="Path 14"/></svg>