<svg xmlns="http://www.w3.org/2000/svg" width="100.091" height="84.78" viewBox="1382.848 1646.662 100.091 84.78"><g data-name="bathrobe"><path d="M1456.087 1728.558h-34.63v-57.075l-2.386.897v59.063h39.405v-59.223l-2.39-.881v57.22Zm-24.471-67.218.96 2.884h2.518l-.961-2.884h-2.517Zm12.195 0-.961 2.884h2.514l.961-2.884h-2.514Z" fill="#bd2328" fill-rule="evenodd" data-name="Path 55"/><path d="m1458.474 1672.218-2.387-.88-11.638-4.311.923-2.803.961-2.884 3.63-10.96 29.415 19.243-6.56 7.917-14.344-5.322Zm-10.015-24.899-.8 2.404-3.85 11.617-.961 2.884-1.051 3.173-.143.449-.206.623h.016l2.243.85 9.824 3.636 2.548.947 2.387.882 15.109 5.608 9.364-11.313-29.576-19.358-3.686-2.403-1.218.001Z" fill="#bd2328" fill-rule="evenodd" data-name="Path 56"/><path d="m1398.562 1669.624 29.423-19.244 3.629 10.96.961 2.884.923 2.804-12.037 4.455-2.387.897-13.948 5.16-6.564-7.916Zm30.696-22.962-1.003.657-3.685 2.404-29.574 19.358 9.36 11.31 14.712-5.463 2.387-.881 2.945-1.09 9.935-3.685 2.148-.802-.399-1.201-1.001-3.045-.961-2.884-3.846-11.617-.801-2.404-.217-.657Z" fill="#bd2328" fill-rule="evenodd" data-name="Path 57"/><path d="M1420.66 1692.185h36.619v2.404h-36.619v-2.404z" fill="#bd2328" fill-rule="evenodd" data-name="Rectangle 197"/><path d="M1433.796 1693.387h2.386v36.854h-2.386v-36.854z" fill="#bd2328" fill-rule="evenodd" data-name="Rectangle 198"/><path d="m1433.892 1668.222 2.2-.942 4.77 11.204-2.199.943-4.77-11.205Z" fill="#bd2328" fill-rule="evenodd" data-name="Path 66"/><path d="m1433.854 1693.03 7.953-25.64 2.28.711-7.952 25.64-2.281-.711Z" fill="#bd2328" fill-rule="evenodd" data-name="Path 67"/><path d="m1428.255 1647.32-3.685 2.403h28.794l-3.685-2.404h-21.424Z" fill="#bd2328" fill-rule="evenodd" data-name="Path 58"/><g data-name="Group 197"><g data-name="Group 196" transform="translate(1382.848 1646.662)" clip-path="url(&quot;#a&quot;)"><path d="M25.871 53.534a8.404 8.404 0 0 0-8.357 8.413v14.42a8.36 8.36 0 0 0 16.718 0l-.001-14.42a8.404 8.404 0 0 0-8.358-8.413m5.97 22.834a5.97 5.97 0 0 1-11.94 0V61.947a5.97 5.97 0 1 1 11.94 0v14.42Z" fill="#bd2328" fill-rule="evenodd" data-name="Path 59"/><path d="M31.843 67.283a8.36 8.36 0 0 0-14.33 5.88v3.205a8.42 8.42 0 0 0 2.388 5.88v-9.085a5.97 5.97 0 1 1 11.94 0v9.086a8.42 8.42 0 0 0 2.388-5.881v-3.205a8.42 8.42 0 0 0-2.387-5.88" fill="#bd2328" fill-rule="evenodd" data-name="Path 60"/><path d="M8.358 53.534A8.404 8.404 0 0 0 0 61.947v14.42a8.398 8.398 0 0 0 8.358 8.413 8.398 8.398 0 0 0 8.358-8.412V61.947a8.404 8.404 0 0 0-8.358-8.413m5.972 22.834a5.97 5.97 0 0 1-11.94 0V61.947a5.97 5.97 0 1 1 11.94 0v14.42Z" fill="#bd2328" fill-rule="evenodd" data-name="Path 61"/><path d="M14.33 67.283a8.307 8.307 0 0 0-11.94 0A8.42 8.42 0 0 0 0 73.163v3.205a8.42 8.42 0 0 0 2.387 5.88v-9.085a5.97 5.97 0 0 1 11.941 0v9.085a8.42 8.42 0 0 0 2.388-5.88v-3.205a8.42 8.42 0 0 0-2.388-5.88" fill="#bd2328" fill-rule="evenodd" data-name="Path 62"/></g></g></g><defs><clipPath id="a"><path d="M0 0h100.097v84.78H0V0z" data-name="Rectangle 201"/></clipPath></defs></svg>