<svg xmlns="http://www.w3.org/2000/svg" width="97.098" height="97.15"><g data-name="Group 37"><g data-name="Group 36"><path d="M71.104 59.95c-.08 0-.159 0-.254-.031a1.16 1.16 0 0 1-.892-1.385c.287-1.29.86-2.53 1.687-3.581a69.223 69.223 0 0 0 5.365-7.927 67.148 67.148 0 0 0 4.186-8.612 8.685 8.685 0 0 1 4.648-4.79 3.83 3.83 0 0 0 1.846-1.736c.876-1.703.287-3.852-1.32-4.887a3.784 3.784 0 0 0-2.372-.589c-2.117.191-4.203-.318-5.874-1.448-4.425-2.96-9.01-5.81-13.657-8.5a234.094 234.094 0 0 0-14.199-7.577c-1.814-.891-3.295-2.435-4.186-4.361a3.781 3.781 0 0 0-1.687-1.767c-1.704-.892-3.853-.319-4.903 1.289a3.764 3.764 0 0 0-.59 2.467 8.788 8.788 0 0 1-1.83 6.415 65.456 65.456 0 0 0-4.106 5.858 1.162 1.162 0 0 1-1.608.366 1.162 1.162 0 0 1-.366-1.608 69.89 69.89 0 0 1 4.25-6.048c1.05-1.353 1.544-3.025 1.353-4.728a6.112 6.112 0 0 1 .939-3.995C39.221.165 42.707-.76 45.461.674a6.058 6.058 0 0 1 2.722 2.849c.668 1.448 1.767 2.594 3.104 3.263 4.807 2.372 9.63 4.95 14.326 7.656a253.388 253.388 0 0 1 13.8 8.58c1.226.828 2.786 1.194 4.378 1.066 1.353-.127 2.674.207 3.836.94 2.626 1.67 3.565 5.14 2.149 7.91a6.094 6.094 0 0 1-2.977 2.818 6.475 6.475 0 0 0-3.422 3.534 68.517 68.517 0 0 1-4.33 8.898 70.442 70.442 0 0 1-5.54 8.197 6.456 6.456 0 0 0-1.24 2.627 1.17 1.17 0 0 1-1.13.923Z" fill="#bd2328" fill-rule="evenodd" data-name="Path 15"/><path d="M9.87 60.126a1.17 1.17 0 0 1-1.147-.923 6.477 6.477 0 0 1-.127-.971A6.202 6.202 0 0 1 9.774 54.3a6.43 6.43 0 0 0 1.193-4.76 70.433 70.433 0 0 1-.7-9.868c0-3.295.239-6.622.7-9.87.24-1.702-.175-3.39-1.193-4.759a6.202 6.202 0 0 1-1.178-3.931c.159-3.104 2.706-5.651 5.826-5.778a6.05 6.05 0 0 1 3.788 1.098c1.305.923 2.833 1.369 4.314 1.273a245.613 245.613 0 0 1 32.472 0c1.48.112 3.008-.35 4.313-1.273 1.115-.78 2.436-1.178 3.789-1.098 3.104.143 5.666 2.674 5.826 5.778a6.202 6.202 0 0 1-1.178 3.931 6.43 6.43 0 0 0-1.194 4.76c.461 3.247.7 6.574.7 9.869s-.239 6.622-.7 9.869c-.239 1.703.175 3.39 1.194 4.76a6.202 6.202 0 0 1 1.178 3.93c0 .255-.048.494-.08.733a1.15 1.15 0 0 1-1.353.94 1.16 1.16 0 0 1-.94-1.354c.033-.143.049-.302.049-.461a3.737 3.737 0 0 0-.733-2.436c-1.369-1.878-1.957-4.17-1.623-6.478.446-3.136.668-6.352.668-9.551 0-3.2-.222-6.399-.684-9.55-.334-2.309.255-4.6 1.623-6.48.526-.7.765-1.543.733-2.434-.096-1.91-1.672-3.486-3.598-3.566-.843-.032-1.655.191-2.34.684-1.735 1.226-3.804 1.815-5.81 1.688a246.53 246.53 0 0 0-32.17 0c-2.02.127-4.074-.462-5.809-1.688a3.844 3.844 0 0 0-2.34-.684c-1.926.08-3.502 1.655-3.597 3.566a3.71 3.71 0 0 0 .732 2.435c1.369 1.878 1.958 4.17 1.624 6.478a68.132 68.132 0 0 0-.685 9.551c0 3.2.223 6.399.685 9.55.334 2.309-.255 4.6-1.624 6.48-.525.7-.764 1.543-.732 2.435 0 .206.032.397.08.588a1.177 1.177 0 0 1-.892 1.385c-.08.016-.16.032-.239.032Z" fill="#bd2328" fill-rule="evenodd" data-name="Path 16"/></g><path d="M77.44 84.782H13.498C6.065 84.782 0 78.734 0 71.284c0-7.45 6.049-13.498 13.498-13.498H48.55c.637 0 1.162.525 1.162 1.162 0 .637-.525 1.162-1.162 1.162h-35.05c-6.16 0-11.159 5.014-11.159 11.158 0 6.145 5.014 11.159 11.158 11.159H77.44a5.007 5.007 0 0 0 4.998-4.999 5.007 5.007 0 0 0-4.998-4.998H18.497a1.169 1.169 0 0 1-1.162-1.162c0-.636.525-1.162 1.161-1.162H77.44c4.043 0 7.322 3.295 7.322 7.322 0 4.028-3.295 7.323-7.322 7.323Z" fill="#bd2328" fill-rule="evenodd" data-name="Path 17"/><path d="M77.44 97.119H7.322C3.28 97.119 0 93.824 0 89.796c0-4.027 3.295-7.322 7.322-7.322h21.744c.637 0 1.162.526 1.162 1.162 0 .637-.525 1.162-1.162 1.162H7.322a5.007 5.007 0 0 0-4.998 4.998 5.007 5.007 0 0 0 4.998 4.999H77.44c9.55 0 17.334-7.768 17.334-17.319 0-9.55-7.768-17.318-17.334-17.318H48.549a1.169 1.169 0 0 1-1.162-1.162c0-.637.525-1.162 1.162-1.162h28.89c10.84 0 19.659 8.818 19.659 19.658 0 10.84-8.819 19.658-19.658 19.658Z" fill="#bd2328" fill-rule="evenodd" data-name="Path 18"/></g></svg>