<svg xmlns="http://www.w3.org/2000/svg" width="57.878" height="57.878" viewBox="1024 6926.122 57.878 57.878"><path d="M1026 6936.16c0 27.526 22.314 49.84 49.84 49.84a50.49 50.49 0 0 0 3.692-.135c1.399-.102 2.098-.153 2.735-.52a3.408 3.408 0 0 0 1.292-1.39c.319-.662.319-1.434.319-2.977v-9.06c0-1.298 0-1.947-.214-2.503a3.212 3.212 0 0 0-.892-1.275c-.45-.39-1.06-.613-2.28-1.056l-10.312-3.75c-1.42-.516-2.13-.774-2.803-.73a3.216 3.216 0 0 0-1.65.585c-.551.39-.94 1.038-1.717 2.333l-2.64 4.4c-8.52-3.858-15.428-10.774-19.293-19.292l4.401-2.64c1.295-.777 1.943-1.166 2.333-1.717a3.216 3.216 0 0 0 .586-1.65c.043-.674-.215-1.383-.731-2.803l-3.75-10.311c-.443-1.22-.665-1.83-1.056-2.28a3.216 3.216 0 0 0-1.275-.893c-.556-.214-1.205-.214-2.504-.214h-9.058c-1.544 0-2.316 0-2.978.32a3.41 3.41 0 0 0-1.39 1.291c-.367.637-.418 1.336-.52 2.735-.09 1.22-.135 2.45-.135 3.693Z" stroke-linejoin="round" stroke-linecap="round" stroke-width="4" stroke="#000" fill="transparent" data-name="phone-svgrepo-com"/></svg>