<svg xmlns="http://www.w3.org/2000/svg" width="198.937" height="25.655"><g data-name="ELEMENT/SEPARATION"><path d="M31.309 11.793h137v2h-137v-2z" fill="#fff" fill-rule="evenodd" data-name="Rectangle"/><g data-name="Group-12"><path d="M49.77 21.793a1.606 1.606 0 1 0 0-3.211 1.606 1.606 0 0 0 0 3.211" fill="#fff" fill-rule="evenodd" data-name="Fill-1"/><path d="M48.165 5.97c0 .885.822 1.603 1.835 1.603 1.017 0 1.835-.718 1.835-1.604 0-.89-.818-1.607-1.835-1.607-1.013 0-1.835.718-1.835 1.607" fill="#fff" fill-rule="evenodd" data-name="Fill-3"/><path d="M30.774 1.85a22.48 22.48 0 0 1-2.79-1.617l-.002.004 14.215 11.92.005.003-.001-.006-.038-.162a14.097 14.097 0 0 0-.411-1.51 15.072 15.072 0 0 0-.424-1.125l-.061-.15c-.02-.045-.042-.087-.062-.131a14.084 14.084 0 0 0-.584-1.148 12.78 12.78 0 0 0-.841-1.287c-.027-.035-.052-.074-.079-.11a9.676 9.676 0 0 0-2.16-2.086 7.438 7.438 0 0 0-2.714-1.18c-1.314-.272-2.678-.748-4.053-1.416" fill="#fff" fill-rule="evenodd" data-name="Fill-11"/><path d="M19.933 17.205c.46.002.932-.033 1.415-.108 1.143-.177 2.356-.569 3.606-1.163.072-.034.143-.072.215-.107a18.206 18.206 0 0 0 1.335-.724 20.98 20.98 0 0 0 1.12-.715c.057-.039.114-.074.17-.113a20.137 20.137 0 0 0 1.56-1.194l.004-.004H0v.005l.002.004a.02.02 0 0 0 .005.008c1.882.52 4.889 1.087 8.072 1.689 3.554.672 7.228 1.366 9.41 2.016.46.163.94.275 1.436.34l.052.006c.142.018.285.033.43.043l.065.003c.14.008.282.014.426.015h.035" fill="#fff" fill-rule="evenodd" data-name="Fill-15"/><path d="M0 12.619H28.9l-.005-.004a19.341 19.341 0 0 0-3.036-1.872 19.353 19.353 0 0 0-3.386-1.318c-1.183-.33-2.274-.489-3.242-.475-1.051.015-1.927.236-2.602.657-.365.228-1.037.466-1.997.707-.845.212-1.897.425-3.217.652-2.404.412-5.194.78-7.436 1.075-1.836.242-3.287.433-3.978.573v.005Z" fill="#fff" fill-rule="evenodd" data-name="Fill-17"/><path d="m42.2 14.46.002-.006L27.539 25.45l-.016.012.018-.009c1.075-.496 3.762-1.686 5.477-2.019.596-.118 1.34-.38 2.092-.737l.123-.063a13.096 13.096 0 0 0 1.398-.788 13.75 13.75 0 0 0 1-.707c.045-.035.093-.068.138-.104a13.3 13.3 0 0 0 2.58-2.706 12.573 12.573 0 0 0 1.851-3.87" fill="#fff" fill-rule="evenodd" data-name="Fill-19"/><path d="M42.287 12.664 27.357.235a.043.043 0 0 0-.012.03c.025 1.386.398 2.807 1.106 4.227.322.643.713 1.285 1.163 1.906.425.587.905 1.16 1.426 1.7.983 1.02 2.095 1.912 3.216 2.578 1.097.652 2.13 1.048 2.99 1.143a7.976 7.976 0 0 1 1.587.328c.37.12.694.268.964.438l.079.054.995.966a8.236 8.236 0 0 1-.484.253c-.866.416-1.52.541-1.918.573-.408.033-1.164.172-2.062.461-.536.173-1.07.382-1.589.622-.066.03-.13.064-.196.096a13.885 13.885 0 0 0-.435.22 14.35 14.35 0 0 0-.894.513c-.012.006-.023.013-.033.02-.07.043-.141.086-.21.131l-.143.098a13.616 13.616 0 0 0-1.852 1.498 13.374 13.374 0 0 0-1.009 1.096 12.793 12.793 0 0 0-.367.467c-.041.055-.085.11-.126.166-.03.04-.057.084-.087.126a13.34 13.34 0 0 0-.76 1.2 14.616 14.616 0 0 0-.517 1.006c-.025.053-.052.104-.076.157l-.058.14a15.307 15.307 0 0 0-.576 1.521 17.154 17.154 0 0 0-.364 1.307c-.014.057-.03.113-.043.17a.316.316 0 0 0 .025.209L42.49 13.938l.05-.194.03-.122" fill="#fff" fill-rule="evenodd" data-name="Fill-23"/></g><g data-name="Group-12-Copy"><path d="M149.166 21.56a1.606 1.606 0 1 1 0-3.212 1.606 1.606 0 0 1 0 3.212" fill="#fff" fill-rule="evenodd" data-name="Fill-1"/><path d="M150.772 5.736c0 .885-.822 1.603-1.835 1.603-1.017 0-1.835-.718-1.835-1.603 0-.89.818-1.608 1.835-1.608 1.013 0 1.835.718 1.835 1.608" fill="#fff" fill-rule="evenodd" data-name="Fill-3"/><path d="M168.163 1.616A22.48 22.48 0 0 0 170.953 0l.002.003-14.215 11.92-.005.004.001-.006c.011-.055.026-.108.038-.162a14.097 14.097 0 0 1 .41-1.51 15.072 15.072 0 0 1 .425-1.126l.06-.149c.02-.045.043-.087.063-.132a14.084 14.084 0 0 1 .583-1.147 12.78 12.78 0 0 1 .842-1.287l.079-.11a9.676 9.676 0 0 1 2.16-2.087 7.438 7.438 0 0 1 2.713-1.18c1.315-.271 2.678-.748 4.054-1.415" fill="#fff" fill-rule="evenodd" data-name="Fill-11"/><path d="M179.003 16.972a9.056 9.056 0 0 1-1.415-.108c-1.142-.178-2.355-.57-3.606-1.163-.071-.034-.143-.073-.214-.108a18.206 18.206 0 0 1-1.335-.724 20.98 20.98 0 0 1-1.12-.715c-.057-.038-.114-.074-.17-.113a20.137 20.137 0 0 1-1.56-1.193l-.004-.004h29.358v.005l-.003.004a.02.02 0 0 1-.004.008h-.001c-1.882.519-4.888 1.087-8.071 1.689-3.554.671-7.228 1.366-9.41 2.016-.46.162-.94.275-1.437.34l-.051.006a7.718 7.718 0 0 1-.43.042l-.065.003c-.14.009-.283.015-.426.015h-.036" fill="#fff" fill-rule="evenodd" data-name="Fill-15"/><path d="M198.936 12.385h-28.898l.005-.004c.89-.678 1.94-1.325 3.036-1.872a19.353 19.353 0 0 1 3.386-1.318c1.183-.329 2.274-.488 3.242-.475 1.051.016 1.927.237 2.602.658.365.228 1.036.466 1.997.707.845.211 1.897.425 3.217.651 2.404.413 5.194.78 7.435 1.075 1.837.242 3.288.434 3.979.574v.004Z" fill="#fff" fill-rule="evenodd" data-name="Fill-17"/><path d="m156.737 14.226-.002-.006 14.663 10.997.016.012-.018-.008c-1.076-.496-3.762-1.686-5.477-2.02-.597-.117-1.34-.38-2.092-.736-.042-.02-.082-.043-.123-.063a13.096 13.096 0 0 1-1.398-.789 13.75 13.75 0 0 1-1-.706c-.045-.036-.093-.068-.138-.104a13.3 13.3 0 0 1-2.58-2.706 12.573 12.573 0 0 1-1.851-3.87" fill="#fff" fill-rule="evenodd" data-name="Fill-19"/><path d="M156.65 12.43 171.58.002a.043.043 0 0 1 .012.03c-.026 1.385-.398 2.807-1.106 4.226a13.713 13.713 0 0 1-1.163 1.906c-.425.588-.905 1.16-1.426 1.7-.984 1.021-2.096 1.913-3.216 2.579-1.097.652-2.131 1.047-2.99 1.143a7.976 7.976 0 0 0-1.588.327 4.37 4.37 0 0 0-.963.439c-.029.018-.053.036-.079.053l-.995.966c.135.077.298.164.484.253.866.417 1.52.542 1.917.574.409.033 1.165.172 2.062.46.536.173 1.071.383 1.59.623.065.03.13.064.196.095l.038.019c.134.065.266.132.398.2l.046.025a14.35 14.35 0 0 1 .848.49l.032.02.21.13c.048.032.094.067.142.099a13.616 13.616 0 0 1 1.852 1.498 13.374 13.374 0 0 1 1.01 1.096 12.793 12.793 0 0 1 .366.466c.042.056.086.11.127.166.03.041.057.085.086.126a13.34 13.34 0 0 1 .761 1.2 14.616 14.616 0 0 1 .517 1.007c.024.053.051.104.075.157.021.045.039.094.06.14a15.307 15.307 0 0 1 .575 1.52 17.154 17.154 0 0 1 .364 1.307c.013.058.03.113.043.17.016.07.007.14-.025.21l-15.394-11.717a13.312 13.312 0 0 0-.05-.195l-.03-.12" fill="#fff" fill-rule="evenodd" data-name="Fill-23"/></g></g></svg>