<svg xmlns="http://www.w3.org/2000/svg" width="198.937" height="25.655" viewBox="162.691 57.207 198.937 25.655"><g data-name="ELEMENT/SEPARATION"><path d="M194 69h137v2H194v-2z" fill="#9d1d21" fill-rule="evenodd" data-name="Rectangle"/><g data-name="Group-12"><path d="M212.462 79a1.606 1.606 0 1 0 0-3.211 1.606 1.606 0 0 0 0 3.21" fill="#9d1d21" fill-rule="evenodd" data-name="Fill-1"/><path d="M210.856 63.176c0 .886.822 1.604 1.835 1.604 1.017 0 1.835-.718 1.835-1.604 0-.89-.818-1.607-1.835-1.607-1.013 0-1.835.718-1.835 1.607" fill="#9d1d21" fill-rule="evenodd" data-name="Fill-3"/><path d="M193.465 59.056a22.48 22.48 0 0 1-2.79-1.616l-.002.004 14.215 11.919.005.004-.001-.006c-.011-.055-.026-.108-.038-.162a14.097 14.097 0 0 0-.41-1.51 15.072 15.072 0 0 0-.425-1.126l-.06-.149c-.02-.045-.043-.087-.063-.132a14.084 14.084 0 0 0-.583-1.147 12.78 12.78 0 0 0-.842-1.287l-.079-.11a9.676 9.676 0 0 0-2.16-2.086 7.438 7.438 0 0 0-2.713-1.18c-1.315-.272-2.678-.749-4.054-1.416" fill="#9d1d21" fill-rule="evenodd" data-name="Fill-11"/><path d="M182.625 74.412c.46.001.931-.033 1.415-.108 1.142-.178 2.355-.569 3.606-1.163.071-.034.143-.073.214-.108a18.206 18.206 0 0 0 1.335-.724 20.98 20.98 0 0 0 1.12-.715c.057-.038.114-.074.17-.113a20.137 20.137 0 0 0 1.56-1.193l.004-.004h-29.358v.005l.003.004a.02.02 0 0 0 .004.008h.001c1.882.519 4.888 1.087 8.071 1.689 3.554.671 7.228 1.366 9.41 2.016.46.163.94.275 1.437.34l.051.006c.142.018.286.033.43.042l.065.003c.141.009.283.015.426.016h.036" fill="#9d1d21" fill-rule="evenodd" data-name="Fill-15"/><path d="M162.692 69.825h28.898l-.005-.004a19.341 19.341 0 0 0-3.036-1.871 19.353 19.353 0 0 0-3.386-1.318c-1.183-.33-2.274-.49-3.242-.475-1.051.015-1.927.236-2.602.657-.365.228-1.036.466-1.997.707-.845.212-1.897.425-3.217.651-2.404.413-5.194.78-7.435 1.076-1.837.242-3.288.433-3.979.573v.004Z" fill="#9d1d21" fill-rule="evenodd" data-name="Fill-17"/><path d="m204.891 71.666.002-.006-14.663 10.998-.016.011.018-.008c1.076-.496 3.762-1.686 5.477-2.02.597-.117 1.34-.379 2.092-.736.042-.02.082-.043.123-.063a13.096 13.096 0 0 0 1.398-.789 13.75 13.75 0 0 0 1-.706c.045-.035.093-.068.138-.104a13.3 13.3 0 0 0 2.58-2.706 12.573 12.573 0 0 0 1.851-3.87" fill="#9d1d21" fill-rule="evenodd" data-name="Fill-19"/><path d="m204.978 69.87-14.93-12.428a.043.043 0 0 0-.012.03c.026 1.385.398 2.807 1.106 4.226.322.644.713 1.285 1.163 1.906.426.588.905 1.16 1.426 1.7.984 1.022 2.096 1.913 3.216 2.58 1.097.651 2.131 1.046 2.99 1.142a7.976 7.976 0 0 1 1.588.328c.369.12.693.268.963.438.029.018.053.036.079.053l.995.967a8.236 8.236 0 0 1-.484.252c-.866.417-1.52.542-1.917.574-.409.033-1.165.172-2.062.46-.536.173-1.071.383-1.59.623-.065.03-.13.064-.196.095a13.885 13.885 0 0 0-.435.22l-.047.024a14.35 14.35 0 0 0-.848.49l-.032.02-.21.13c-.048.033-.094.067-.142.099a13.616 13.616 0 0 0-1.852 1.498 13.374 13.374 0 0 0-1.01 1.096 12.793 12.793 0 0 0-.366.467c-.042.055-.086.109-.127.165-.03.041-.057.085-.086.127a13.34 13.34 0 0 0-.761 1.2 14.616 14.616 0 0 0-.517 1.006c-.024.053-.051.104-.075.157-.021.046-.039.094-.06.14a15.307 15.307 0 0 0-.575 1.521 17.154 17.154 0 0 0-.364 1.307c-.013.057-.03.112-.043.17a.316.316 0 0 0 .025.208l15.394-11.716c.016-.067.033-.132.05-.195l.03-.12" fill="#9d1d21" fill-rule="evenodd" data-name="Fill-23"/></g><g data-name="Group-12-Copy"><path d="M311.857 78.766a1.606 1.606 0 1 1 0-3.21 1.606 1.606 0 0 1 0 3.21" fill="#9d1d21" fill-rule="evenodd" data-name="Fill-1"/><path d="M313.463 62.943c0 .885-.822 1.603-1.835 1.603-1.017 0-1.835-.718-1.835-1.603 0-.89.818-1.608 1.835-1.608 1.013 0 1.835.718 1.835 1.608" fill="#9d1d21" fill-rule="evenodd" data-name="Fill-3"/><path d="M330.854 58.823a22.48 22.48 0 0 0 2.79-1.616l.002.003-14.215 11.92-.005.003.001-.006.038-.162a14.097 14.097 0 0 1 .411-1.51 15.072 15.072 0 0 1 .424-1.125l.061-.15c.02-.044.042-.086.062-.131a14.084 14.084 0 0 1 .584-1.148 12.78 12.78 0 0 1 .841-1.286c.027-.036.052-.075.079-.11a9.676 9.676 0 0 1 2.16-2.087 7.438 7.438 0 0 1 2.714-1.18c1.314-.272 2.678-.748 4.053-1.415" fill="#9d1d21" fill-rule="evenodd" data-name="Fill-11"/><path d="M341.695 74.179a9.056 9.056 0 0 1-1.415-.109c-1.143-.177-2.356-.568-3.606-1.162-.072-.034-.143-.073-.215-.108a18.206 18.206 0 0 1-1.335-.724 20.98 20.98 0 0 1-1.12-.715c-.057-.038-.114-.074-.17-.113a20.137 20.137 0 0 1-1.56-1.193l-.004-.004h29.358v.004l-.002.005a.02.02 0 0 1-.005.007v.001c-1.882.518-4.889 1.087-8.072 1.688-3.554.672-7.228 1.366-9.41 2.017-.46.162-.94.275-1.436.34l-.052.006a7.718 7.718 0 0 1-.43.042l-.065.003c-.14.008-.282.014-.426.015h-.035" fill="#9d1d21" fill-rule="evenodd" data-name="Fill-15"/><path d="M361.628 69.592h-28.899l.005-.004c.89-.678 1.94-1.325 3.036-1.872a19.353 19.353 0 0 1 3.386-1.318c1.183-.329 2.274-.489 3.242-.475 1.051.015 1.927.237 2.602.658.365.228 1.037.465 1.997.706.845.212 1.897.425 3.217.652 2.404.413 5.194.78 7.436 1.075 1.836.242 3.287.433 3.978.574v.004Z" fill="#9d1d21" fill-rule="evenodd" data-name="Fill-17"/><path d="m319.428 71.433-.002-.006 14.663 10.997.016.012-.018-.008c-1.075-.496-3.762-1.686-5.477-2.02-.596-.117-1.34-.38-2.092-.737l-.123-.063a13.096 13.096 0 0 1-1.398-.788 13.75 13.75 0 0 1-1-.706c-.045-.036-.093-.068-.138-.104a13.3 13.3 0 0 1-2.58-2.706 12.573 12.573 0 0 1-1.851-3.871" fill="#9d1d21" fill-rule="evenodd" data-name="Fill-19"/><path d="m319.341 69.637 14.93-12.429a.043.043 0 0 1 .012.031c-.025 1.385-.397 2.807-1.106 4.226a13.713 13.713 0 0 1-1.163 1.906c-.425.588-.905 1.16-1.425 1.7-.984 1.021-2.096 1.913-3.217 2.579-1.097.652-2.13 1.047-2.99 1.143a7.976 7.976 0 0 0-1.587.327 4.37 4.37 0 0 0-.964.439l-.079.053-.995.966c.135.076.298.164.484.253.866.416 1.521.542 1.918.573.408.034 1.164.172 2.062.461.536.173 1.07.382 1.589.622.066.031.13.064.196.096l.039.019c.133.065.266.131.397.2l.046.025a14.35 14.35 0 0 1 .848.489l.032.02c.07.044.141.087.21.132.048.031.095.065.143.098a13.616 13.616 0 0 1 1.852 1.498 13.374 13.374 0 0 1 1.009 1.096 12.793 12.793 0 0 1 .367.466c.041.056.085.11.126.166.03.041.057.085.087.126a13.34 13.34 0 0 1 .76 1.2 14.616 14.616 0 0 1 .517 1.006c.025.053.052.104.076.158.02.045.038.093.058.14a15.307 15.307 0 0 1 .576 1.52 17.154 17.154 0 0 1 .364 1.307c.014.057.03.113.043.17.016.07.007.14-.025.209l-15.393-11.716a13.312 13.312 0 0 0-.05-.195l-.03-.121" fill="#9d1d21" fill-rule="evenodd" data-name="Fill-23"/></g></g></svg>